<svg xmlns="http://www.w3.org/2000/svg" width="24" height="24" viewBox="0 0 24 24" fill="none" stroke="#8B5CF6" stroke-width="2" stroke-linecap="round" stroke-linejoin="round">
  <path d="M9.5 2A2.5 2.5 0 0 1 12 4.5v15a2.5 2.5 0 0 1-4.96.44 2.5 2.5 0 0 0-2.04-3.44H3a2 2 0 0 1-2-2v-2a2 2 0 0 1 2-2h2a2.5 2.5 0 0 0 2.04-3.44A2.5 2.5 0 0 1 9.5 2Z"></path>
  <path d="M14.5 2A2.5 2.5 0 0 0 12 4.5v15a2.5 2.5 0 0 0 4.96.44 2.5 2.5 0 0 1 2.04-3.44H21a2 2 0 0 0 2-2v-2a2 2 0 0 0-2-2h-2a2.5 2.5 0 0 1-2.04-3.44A2.5 2.5 0 0 0 14.5 2Z"></path>
</svg>